Coordinates
version=1
nRows=19
nColumns=24
inDegrees=yes

Units are S.I. units (second, meters, Newtons, ...)
Angles are in degrees.

endheader
time	pelvis_tilt	pelvis_list	pelvis_rotation	pelvis_tx	pelvis_ty	pelvis_tz	hip_flexion_r	hip_adduction_r	hip_rotation_r	knee_angle_r	ankle_angle_r	subtalar_angle_r	mtp_angle_r	hip_flexion_l	hip_adduction_l	hip_rotation_l	knee_angle_l	ankle_angle_l	subtalar_angle_l	mtp_angle_l	lumbar_extension	lumbar_bending	lumbar_rotation
      4.67000000	     -3.85340472	      8.78200095	     -5.78944439	      0.43224277	      1.01226479	     -0.24117559	      9.80555673	    -12.82294899	     -5.05261704	    -62.01784128	    -11.95615130	      0.81099682	      0.00000000	     19.94728863	     10.95766201	     -6.83657141	    -17.25560288	      8.71507772	     -8.92390238	      0.00000000	     -7.92967922	    -11.75144363	      1.29959305
      4.67500000	     -3.78098280	      8.81434878	     -5.72588095	      0.43836974	      1.01308939	     -0.24159110	     10.51875554	    -12.87549941	     -5.06670772	    -62.90414676	    -11.28444046	      0.34502311	      0.00000000	     19.35759927	     11.10794178	     -6.67479351	    -17.00156775	      9.00055570	     -8.84094829	      0.00000000	     -8.00771963	    -11.75473261	      1.11323354
      4.68000000	     -3.72868524	      8.87557558	     -5.61665218	      0.44449136	      1.01387845	     -0.24209507	     11.23516941	    -12.96435798	     -5.09560192	    -63.74223490	    -10.30840223	      0.14402205	      0.00000000	     18.78257286	     11.30501224	     -6.50384396	    -16.72283380	      9.20633225	     -8.84683677	      0.00000000	     -8.06834584	    -11.78307555	      0.82402738
      4.68500000	     -3.66972859	      8.88445966	     -5.50522774	      0.45065656	      1.01473596	     -0.24257746	     11.91519341	    -12.99276520	     -5.15033541	    -64.48181630	     -9.23621054	     -0.01830488	      0.00000000	     18.16288739	     11.45356601	     -6.24278578	    -16.40010213	      9.42019021	     -8.84534994	      0.00000000	     -8.12272380	    -11.75024040	      0.55470104
      4.69000000	     -3.60060922	      8.86295360	     -5.36850978	      0.45675122	      1.01562892	     -0.24312660	     12.56519963	    -13.00054364	     -5.25139815	    -65.14936075	     -8.03212442	     -0.08566382	      0.00000000	     17.52724840	     11.58601350	     -5.92820831	    -16.06841145	      9.57221187	     -8.93459557	      0.00000000	     -8.20875610	    -11.67280629	      0.27749816
      4.69500000	     -3.49483857	      8.82715814	     -5.21153330	      0.46286790	      1.01660784	     -0.24374324	     13.14947883	    -13.01190156	     -5.41306688	    -65.72796408	     -6.78111339	     -0.15088536	      0.00000000	     16.81884690	     11.72876751	     -5.49289150	    -15.67584979	      9.60835414	     -9.19680068	      0.00000000	     -8.34149834	    -11.57139878	      0.00447847
      4.70000000	     -3.42455300	      8.74676545	     -5.05389310	      0.46894799	      1.01755279	     -0.24427171	     13.75952713	    -12.95664633	     -5.56507417	    -66.23729441	     -5.50539116	     -0.15297645	      0.00000000	     16.15489019	     11.79826776	     -5.13316754	    -15.31495054	      9.76329338	     -9.26604213	      0.00000000	     -8.43236418	    -11.42599700	     -0.29526311
      4.70500000	     -3.29207676	      8.67520520	     -4.85753317	      0.47508683	      1.01859982	     -0.24495347	     14.27037199	    -12.95132328	     -5.81327359	    -66.65821362	     -4.24767879	     -0.20187265	      0.00000000	     15.38039237	     11.91902836	     -4.58564046	    -14.86958914	      9.73493559	     -9.62522663	      0.00000000	     -8.59498887	    -11.27521111	     -0.60794309
      4.71000000	     -3.18020023	      8.56545782	     -4.66278199	      0.48117745	      1.01963179	     -0.24556541	     14.79144249	    -12.89038442	     -6.05592733	    -67.00950935	     -3.01440157	     -0.22344906	      0.00000000	     14.63260001	     11.97809268	     -4.08836435	    -14.44290556	      9.76104167	     -9.87231007	      0.00000000	     -8.73814752	    -11.08659396	     -0.91523315
      4.71500000	     -3.11945702	      8.40986128	     -4.48794707	      0.48719085	      1.02060525	     -0.24607415	     15.36489138	    -12.75070795	     -6.25878258	    -67.29733216	     -1.82126635	     -0.21014261	      0.00000000	     13.95235327	     11.95927884	     -3.66578840	    -14.04372260	      9.84441427	    -10.01019797	      0.00000000	     -8.82700869	    -10.85225711	     -1.18146756
      4.72000000	     -2.99296052	      8.27957726	     -4.23329711	      0.49333192	      1.02166696	     -0.24681797	     15.81722609	    -12.69992122	     -6.60843060	    -67.49632924	     -0.70194574	     -0.26483059	      0.00000000	     13.15487419	     12.01210554	     -3.07357575	    -13.56381670	      9.75488035	    -10.41323033	      0.00000000	     -8.98236053	    -10.62162255	     -1.52825017
      4.72500000	     -2.86398264	      8.12819421	     -4.02774374	      0.49940669	      1.02272949	     -0.24740358	     16.27616850	    -12.59270361	     -6.89954332	    -67.63077254	      0.31112379	     -0.36402861	      0.00000000	     12.34986668	     12.01221599	     -2.49395185	    -13.07226490	      9.70167761	    -10.72562597	      0.00000000	     -9.14052426	    -10.38652584	     -1.81180798
      4.73000000	     -2.77558847	      7.94051185	     -3.82261878	      0.50547080	      1.02370811	     -0.24799527	     16.76591104	    -12.43877907	     -7.18319788	    -67.70889541	      1.27777022	     -0.40523043	      0.00000000	     11.60008835	     11.95907580	     -2.00825540	    -12.60377126	      9.70115850	    -10.99789889	      0.00000000	     -9.24716781	    -10.09752573	     -2.09675968
      4.73500000	     -2.67724046	      7.75212251	     -3.61061811	      0.51151096	      1.02469201	     -0.24856903	     17.23166005	    -12.28162398	     -7.48178952	    -67.71881437	      2.16482567	     -0.47726029	      0.00000000	     10.82419961	     11.89900512	     -1.45802029	    -12.10578041	      9.65158294	    -11.30059015	      0.00000000	     -9.36864961	     -9.81512060	     -2.37528465
      4.74000000	     -2.53594127	      7.58656536	     -3.39706784	      0.51754259	      1.02570953	     -0.24911925	     17.64190306	    -12.15113292	     -7.79651419	    -67.66490580	      2.97786832	     -0.60053936	      0.00000000	      9.98551812	     11.85747687	     -0.83905401	    -11.57179889	      9.53028672	    -11.65143885	      0.00000000	     -9.54274760	     -9.56863104	     -2.64706044
      4.74500000	     -2.44541321	      7.38237157	     -3.19175817	      0.52357003	      1.02665058	     -0.24962913	     18.08924459	    -11.96019020	     -8.08612202	    -67.54552198	      3.77670187	     -0.63118139	      0.00000000	      9.21453085	     11.75423946	     -0.35020093	    -11.05898199	      9.45029632	    -11.92201176	      0.00000000	     -9.64673382	     -9.27142612	     -2.90102629
      4.75000000	     -2.33153051	      7.19036830	     -3.00070907	      0.52958805	      1.02754842	     -0.25013699	     18.51081526	    -11.78056164	     -8.36928366	    -67.37781316	      4.53315535	     -0.66832720	      0.00000000	      8.40551865	     11.65852909	      0.20474342	    -10.51832584	      9.36622905	    -12.24917870	      0.00000000	     -9.77478154	     -8.99004981	     -3.14138899
      4.75500000	     -2.23345523	      6.98971978	     -2.81447347	      0.53558365	      1.02840234	     -0.25059191	     18.93590404	    -11.57734240	     -8.63867456	    -67.14719209	      5.29078802	     -0.65151046	      0.00000000	      7.61826616	     11.53851430	      0.71321051	     -9.97916114	      9.27382934	    -12.55070661	      0.00000000	     -9.88337007	     -8.70048704	     -3.36906591
      4.76000000	     -2.13805876	      6.78593389	     -2.63825364	      0.54157756	      1.02920910	     -0.25101848	     19.35292436	    -11.35963916	     -8.89116048	    -66.85668082	      6.04777761	     -0.58909445	      0.00000000	      6.83367745	     11.40473927	      1.20952061	     -9.43471267	      9.17002072	    -12.86318640	      0.00000000	     -9.98228836	     -8.41048152	     -3.58342362
